<svg width="1222" height="142" viewBox="0 0 1222 142" fill="none" xmlns="http://www.w3.org/2000/svg">
<mask id="path-1-outside-1" maskUnits="userSpaceOnUse" x="1080" y="0" width="142" height="142" fill="black">
<rect fill="white" x="1080" width="142" height="142"/>
<path fill-rule="evenodd" clip-rule="evenodd" d="M1121 21H1101V41H1121V61H1141V121H1161V61H1181V41H1201V21H1181V41H1161V61H1141V41H1121V21Z"/>
</mask>
<path fill-rule="evenodd" clip-rule="evenodd" d="M1121 21H1101V41H1121V61H1141V121H1161V61H1181V41H1201V21H1181V41H1161V61H1141V41H1121V21Z" fill="white"/>
<path d="M1101 21V0H1080V21H1101ZM1121 21H1142V0H1121V21ZM1101 41H1080V62H1101V41ZM1121 61H1100V82H1121V61ZM1141 121H1120V142H1141V121ZM1161 121V142H1182V121H1161ZM1181 61V82H1202V61H1181ZM1201 41V62H1222V41H1201ZM1201 21H1222V0H1201V21ZM1181 21V0H1160V21H1181ZM1161 41V20H1140V41H1161ZM1141 41H1162V20H1141V41ZM1101 42H1121V0H1101V42ZM1122 41V21H1080V41H1122ZM1121 20H1101V62H1121V20ZM1100 41V61H1142V41H1100ZM1121 82H1141V40H1121V82ZM1120 61V121H1162V61H1120ZM1141 142H1161V100H1141V142ZM1182 121V61H1140V121H1182ZM1161 82H1181V40H1161V82ZM1202 61V41H1160V61H1202ZM1181 62H1201V20H1181V62ZM1222 41V21H1180V41H1222ZM1201 0H1181V42H1201V0ZM1160 21V41H1202V21H1160ZM1181 20H1161V62H1181V20ZM1140 41V61H1182V41H1140ZM1161 40H1141V82H1161V40ZM1162 61V41H1120V61H1162ZM1141 20H1121V62H1141V20ZM1100 21V41H1142V21H1100Z" fill="black" mask="url(#path-1-outside-1)"/>
<mask id="path-3-outside-2" maskUnits="userSpaceOnUse" x="960" y="0" width="142" height="142" fill="black">
<rect fill="white" x="960" width="142" height="142"/>
<path fill-rule="evenodd" clip-rule="evenodd" d="M1001 21H981V121H1001H1061V101H1081V41H1061V21H1001ZM1001 41H1061V101H1001V41Z"/>
</mask>
<path fill-rule="evenodd" clip-rule="evenodd" d="M1001 21H981V121H1001H1061V101H1081V41H1061V21H1001ZM1001 41H1061V101H1001V41Z" fill="white"/>
<path d="M981 21V0H960V21H981ZM981 121H960V142H981V121ZM1061 121V142H1082V121H1061ZM1081 101V122H1102V101H1081ZM1081 41H1102V20H1081V41ZM1061 21H1082V0H1061V21ZM1001 41V20H980V41H1001ZM1001 101H980V122H1001V101ZM981 42H1001V0H981V42ZM1002 121V21H960V121H1002ZM1001 100H981V142H1001V100ZM1001 142H1061V100H1001V142ZM1082 121V101H1040V121H1082ZM1061 122H1081V80H1061V122ZM1102 101V41H1060V101H1102ZM1081 20H1061V62H1081V20ZM1082 41V21H1040V41H1082ZM1061 0H1001V42H1061V0ZM1001 62H1061V20H1001V62ZM1040 41V101H1082V41H1040ZM1061 80H1001V122H1061V80ZM980 41V101H1022V41H980Z" fill="black" mask="url(#path-3-outside-2)"/>
<mask id="path-5-outside-3" maskUnits="userSpaceOnUse" x="840" y="0" width="142" height="142" fill="black">
<rect fill="white" x="840" width="142" height="142"/>
<path fill-rule="evenodd" clip-rule="evenodd" d="M881 21H861V121H881H941V101H961V41H941V21H881ZM881 41H941V101H881V41Z"/>
</mask>
<path fill-rule="evenodd" clip-rule="evenodd" d="M881 21H861V121H881H941V101H961V41H941V21H881ZM881 41H941V101H881V41Z" fill="white"/>
<path d="M861 21V0H840V21H861ZM861 121H840V142H861V121ZM941 121V142H962V121H941ZM961 101V122H982V101H961ZM961 41H982V20H961V41ZM941 21H962V0H941V21ZM881 41V20H860V41H881ZM881 101H860V122H881V101ZM861 42H881V0H861V42ZM882 121V21H840V121H882ZM881 100H861V142H881V100ZM881 142H941V100H881V142ZM962 121V101H920V121H962ZM941 122H961V80H941V122ZM982 101V41H940V101H982ZM961 20H941V62H961V20ZM962 41V21H920V41H962ZM941 0H881V42H941V0ZM881 62H941V20H881V62ZM920 41V101H962V41H920ZM941 80H881V122H941V80ZM860 41V101H902V41H860Z" fill="black" mask="url(#path-5-outside-3)"/>
<mask id="path-7-outside-4" maskUnits="userSpaceOnUse" x="720" y="0" width="142" height="142" fill="black">
<rect fill="white" x="720" width="142" height="142"/>
<path fill-rule="evenodd" clip-rule="evenodd" d="M821 21H761V41H741V121H761V81H821V121H841V41H821V21ZM821 41H761V61H821V41Z"/>
</mask>
<path fill-rule="evenodd" clip-rule="evenodd" d="M821 21H761V41H741V121H761V81H821V121H841V41H821V21ZM821 41H761V61H821V41Z" fill="white"/>
<path d="M761 21V0H740V21H761ZM821 21H842V0H821V21ZM741 41V20H720V41H741ZM741 121H720V142H741V121ZM761 121V142H782V121H761ZM761 81V60H740V81H761ZM821 81H842V60H821V81ZM821 121H800V142H821V121ZM841 121V142H862V121H841ZM841 41H862V20H841V41ZM761 61H740V82H761V61ZM821 61V82H842V61H821ZM761 42H821V0H761V42ZM782 41V21H740V41H782ZM761 20H741V62H761V20ZM720 41V121H762V41H720ZM741 142H761V100H741V142ZM782 121V81H740V121H782ZM761 102H821V60H761V102ZM800 81V121H842V81H800ZM821 142H841V100H821V142ZM862 121V41H820V121H862ZM841 20H821V62H841V20ZM800 21V41H842V21H800ZM821 20H761V62H821V20ZM782 61V41H740V61H782ZM821 40H761V82H821V40ZM800 41V61H842V41H800Z" fill="black" mask="url(#path-7-outside-4)"/>
<mask id="path-9-outside-5" maskUnits="userSpaceOnUse" x="600" y="0" width="142" height="142" fill="black">
<rect fill="white" x="600" width="142" height="142"/>
<path fill-rule="evenodd" clip-rule="evenodd" d="M641 21H621V121H641H701V101H721V41H701V21H641ZM641 41H701V101H641V41Z"/>
</mask>
<path fill-rule="evenodd" clip-rule="evenodd" d="M641 21H621V121H641H701V101H721V41H701V21H641ZM641 41H701V101H641V41Z" fill="white"/>
<path d="M621 21V0H600V21H621ZM621 121H600V142H621V121ZM701 121V142H722V121H701ZM721 101V122H742V101H721ZM721 41H742V20H721V41ZM701 21H722V0H701V21ZM641 41V20H620V41H641ZM641 101H620V122H641V101ZM621 42H641V0H621V42ZM642 121V21H600V121H642ZM641 100H621V142H641V100ZM641 142H701V100H641V142ZM722 121V101H680V121H722ZM701 122H721V80H701V122ZM742 101V41H700V101H742ZM721 20H701V62H721V20ZM722 41V21H680V41H722ZM701 0H641V42H701V0ZM641 62H701V20H641V62ZM680 41V101H722V41H680ZM701 80H641V122H701V80ZM620 41V101H662V41H620Z" fill="black" mask="url(#path-9-outside-5)"/>
<mask id="path-11-outside-6" maskUnits="userSpaceOnUse" x="480" y="0" width="142" height="142" fill="black">
<rect fill="white" x="480" width="142" height="142"/>
<path fill-rule="evenodd" clip-rule="evenodd" d="M521 21H501V121H521V61H541V81H561V101H581V121H601V21H581V81H561V61H541V41H521V21Z"/>
</mask>
<path fill-rule="evenodd" clip-rule="evenodd" d="M521 21H501V121H521V61H541V81H561V101H581V121H601V21H581V81H561V61H541V41H521V21Z" fill="white"/>
<path d="M501 21V0H480V21H501ZM521 21H542V0H521V21ZM501 121H480V142H501V121ZM521 121V142H542V121H521ZM521 61V40H500V61H521ZM541 81H520V102H541V81ZM561 101H540V122H561V101ZM581 101H602V80H581V101ZM581 121H560V142H581V121ZM601 121V142H622V121H601ZM601 21H622V0H601V21ZM581 21V0H560V21H581ZM581 81V102H602V81H581ZM561 61H582V40H561V61ZM541 41H562V20H541V41ZM521 41H500V62H521V41ZM501 42H521V0H501V42ZM522 121V21H480V121H522ZM521 100H501V142H521V100ZM500 61V121H542V61H500ZM521 82H541V40H521V82ZM520 61V81H562V61H520ZM541 102H561V60H541V102ZM540 81V101H582V81H540ZM561 122H581V80H561V122ZM560 101V121H602V101H560ZM581 142H601V100H581V142ZM622 121V21H580V121H622ZM601 0H581V42H601V0ZM560 21V81H602V21H560ZM581 60H561V102H581V60ZM582 81V61H540V81H582ZM561 40H541V82H561V40ZM562 61V41H520V61H562ZM541 20H521V62H541V20ZM500 21V41H542V21H500Z" fill="black" mask="url(#path-11-outside-6)"/>
<mask id="path-13-outside-7" maskUnits="userSpaceOnUse" x="360" y="0" width="142" height="142" fill="black">
<rect fill="white" x="360" width="142" height="142"/>
<path fill-rule="evenodd" clip-rule="evenodd" d="M401 21H381V101H401V121H421V101H441V121H461V101H481V21H461V101H441V41H421V101H401V21Z"/>
</mask>
<path fill-rule="evenodd" clip-rule="evenodd" d="M401 21H381V101H401V121H421V101H441V121H461V101H481V21H461V101H441V41H421V101H401V21Z" fill="white"/>
<path d="M381 21V0H360V21H381ZM401 21H422V0H401V21ZM381 101H360V122H381V101ZM401 121H380V142H401V121ZM421 121V142H442V121H421ZM441 121H420V142H441V121ZM461 121V142H482V121H461ZM481 101V122H502V101H481ZM481 21H502V0H481V21ZM461 21V0H440V21H461ZM441 41H462V20H441V41ZM421 41V20H400V41H421ZM381 42H401V0H381V42ZM402 101V21H360V101H402ZM401 80H381V122H401V80ZM380 101V121H422V101H380ZM401 142H421V100H401V142ZM442 121V101H400V121H442ZM421 122H441V80H421V122ZM420 101V121H462V101H420ZM441 142H461V100H441V142ZM482 121V101H440V121H482ZM461 122H481V80H461V122ZM502 101V21H460V101H502ZM481 0H461V42H481V0ZM440 21V101H482V21H440ZM461 80H441V122H461V80ZM462 101V41H420V101H462ZM441 20H421V62H441V20ZM400 41V101H442V41H400ZM421 80H401V122H421V80ZM380 21V101H422V21H380Z" fill="black" mask="url(#path-13-outside-7)"/>
<mask id="path-15-outside-8" maskUnits="userSpaceOnUse" x="240" y="0" width="142" height="142" fill="black">
<rect fill="white" x="240" width="142" height="142"/>
<path fill-rule="evenodd" clip-rule="evenodd" d="M341 21H281V41H261V121H281V81H341V121H361V41H341V21ZM341 41H281V61H341V41Z"/>
</mask>
<path fill-rule="evenodd" clip-rule="evenodd" d="M341 21H281V41H261V121H281V81H341V121H361V41H341V21ZM341 41H281V61H341V41Z" fill="white"/>
<path d="M281 21V0H260V21H281ZM341 21H362V0H341V21ZM261 41V20H240V41H261ZM261 121H240V142H261V121ZM281 121V142H302V121H281ZM281 81V60H260V81H281ZM341 81H362V60H341V81ZM341 121H320V142H341V121ZM361 121V142H382V121H361ZM361 41H382V20H361V41ZM281 61H260V82H281V61ZM341 61V82H362V61H341ZM281 42H341V0H281V42ZM302 41V21H260V41H302ZM281 20H261V62H281V20ZM240 41V121H282V41H240ZM261 142H281V100H261V142ZM302 121V81H260V121H302ZM281 102H341V60H281V102ZM320 81V121H362V81H320ZM341 142H361V100H341V142ZM382 121V41H340V121H382ZM361 20H341V62H361V20ZM320 21V41H362V21H320ZM341 20H281V62H341V20ZM302 61V41H260V61H302ZM341 40H281V82H341V40ZM320 41V61H362V41H320Z" fill="black" mask="url(#path-15-outside-8)"/>
<mask id="path-17-outside-9" maskUnits="userSpaceOnUse" x="120" y="0" width="142" height="142" fill="black">
<rect fill="white" x="120" width="142" height="142"/>
<path fill-rule="evenodd" clip-rule="evenodd" d="M161 21H141V121H161V81H221V121H241V21H221V61H161V21Z"/>
</mask>
<path fill-rule="evenodd" clip-rule="evenodd" d="M161 21H141V121H161V81H221V121H241V21H221V61H161V21Z" fill="white"/>
<path d="M141 21V0H120V21H141ZM161 21H182V0H161V21ZM141 121H120V142H141V121ZM161 121V142H182V121H161ZM161 81V60H140V81H161ZM221 81H242V60H221V81ZM221 121H200V142H221V121ZM241 121V142H262V121H241ZM241 21H262V0H241V21ZM221 21V0H200V21H221ZM221 61V82H242V61H221ZM161 61H140V82H161V61ZM141 42H161V0H141V42ZM162 121V21H120V121H162ZM161 100H141V142H161V100ZM140 81V121H182V81H140ZM161 102H221V60H161V102ZM200 81V121H242V81H200ZM221 142H241V100H221V142ZM262 121V21H220V121H262ZM241 0H221V42H241V0ZM200 21V61H242V21H200ZM221 40H161V82H221V40ZM140 21V61H182V21H140Z" fill="black" mask="url(#path-17-outside-9)"/>
<mask id="path-19-outside-10" maskUnits="userSpaceOnUse" x="0" y="0" width="142" height="142" fill="black">
<rect fill="white" width="142" height="142"/>
<path fill-rule="evenodd" clip-rule="evenodd" d="M121 21H41V41H21V61H41V81H101V101H21V121H101V101H121V81H101V61H41V41H121V21Z"/>
</mask>
<path fill-rule="evenodd" clip-rule="evenodd" d="M121 21H41V41H21V61H41V81H101V101H21V121H101V101H121V81H101V61H41V41H121V21Z" fill="white"/>
<path d="M41 21V0H20V21H41ZM121 21H142V0H121V21ZM21 41V20H0V41H21ZM21 61H0V82H21V61ZM41 81H20V102H41V81ZM21 101V80H0V101H21ZM21 121H0V142H21V121ZM101 121V142H122V121H101ZM121 101V122H142V101H121ZM121 81H142V60H121V81ZM101 61H122V40H101V61ZM121 41V62H142V41H121ZM41 42H121V0H41V42ZM62 41V21H20V41H62ZM41 20H21V62H41V20ZM0 41V61H42V41H0ZM21 82H41V40H21V82ZM20 61V81H62V61H20ZM41 102H101V60H41V102ZM80 81V101H122V81H80ZM101 80H21V122H101V80ZM0 101V121H42V101H0ZM21 142H101V100H21V142ZM122 121V101H80V121H122ZM101 122H121V80H101V122ZM142 101V81H100V101H142ZM121 60H101V102H121V60ZM122 81V61H80V81H122ZM101 40H41V82H101V40ZM62 61V41H20V61H62ZM121 20H41V62H121V20ZM100 21V41H142V21H100Z" fill="black" mask="url(#path-19-outside-10)"/>
</svg>
