<svg width="1220" height="160" viewBox="0 0 1220 160" fill="none" xmlns="http://www.w3.org/2000/svg">
<mask id="path-1-outside-1" maskUnits="userSpaceOnUse" x="1080" y="20" width="140" height="140" fill="black">
<rect fill="white" x="1080" y="20" width="140" height="140"/>
<path fill-rule="evenodd" clip-rule="evenodd" d="M1120 40H1100V60H1120V80H1140V140H1160V80H1180V60H1200V40H1180V60H1160V80H1140V60H1120V40Z"/>
</mask>
<path fill-rule="evenodd" clip-rule="evenodd" d="M1120 40H1100V60H1120V80H1140V140H1160V80H1180V60H1200V40H1180V60H1160V80H1140V60H1120V40Z" fill="white"/>
<path d="M1100 40V20H1080V40H1100ZM1120 40H1140V20H1120V40ZM1100 60H1080V80H1100V60ZM1120 80H1100V100H1120V80ZM1140 140H1120V160H1140V140ZM1160 140V160H1180V140H1160ZM1180 80V100H1200V80H1180ZM1200 60V80H1220V60H1200ZM1200 40H1220V20H1200V40ZM1180 40V20H1160V40H1180ZM1160 60V40H1140V60H1160ZM1140 60H1160V40H1140V60ZM1100 60H1120V20H1100V60ZM1120 60V40H1080V60H1120ZM1120 40H1100V80H1120V40ZM1100 60V80H1140V60H1100ZM1120 100H1140V60H1120V100ZM1120 80V140H1160V80H1120ZM1140 160H1160V120H1140V160ZM1180 140V80H1140V140H1180ZM1160 100H1180V60H1160V100ZM1200 80V60H1160V80H1200ZM1180 80H1200V40H1180V80ZM1220 60V40H1180V60H1220ZM1200 20H1180V60H1200V20ZM1160 40V60H1200V40H1160ZM1180 40H1160V80H1180V40ZM1140 60V80H1180V60H1140ZM1160 60H1140V100H1160V60ZM1160 80V60H1120V80H1160ZM1140 40H1120V80H1140V40ZM1100 40V60H1140V40H1100Z" fill="black" mask="url(#path-1-outside-1)"/>
<mask id="path-3-outside-2" maskUnits="userSpaceOnUse" x="960" y="20" width="140" height="140" fill="black">
<rect fill="white" x="960" y="20" width="140" height="140"/>
<path fill-rule="evenodd" clip-rule="evenodd" d="M1000 40H980V140H1000H1060V120H1080V60H1060V40H1000ZM1000 60H1060V120H1000V60Z"/>
</mask>
<path fill-rule="evenodd" clip-rule="evenodd" d="M1000 40H980V140H1000H1060V120H1080V60H1060V40H1000ZM1000 60H1060V120H1000V60Z" fill="white"/>
<path d="M980 40V20H960V40H980ZM980 140H960V160H980V140ZM1060 140V160H1080V140H1060ZM1080 120V140H1100V120H1080ZM1080 60H1100V40H1080V60ZM1060 40H1080V20H1060V40ZM1000 60V40H980V60H1000ZM1000 120H980V140H1000V120ZM980 60H1000V20H980V60ZM1000 140V40H960V140H1000ZM1000 120H980V160H1000V120ZM1000 160H1060V120H1000V160ZM1080 140V120H1040V140H1080ZM1060 140H1080V100H1060V140ZM1100 120V60H1060V120H1100ZM1080 40H1060V80H1080V40ZM1080 60V40H1040V60H1080ZM1060 20H1000V60H1060V20ZM1000 80H1060V40H1000V80ZM1040 60V120H1080V60H1040ZM1060 100H1000V140H1060V100ZM980 60V120H1020V60H980Z" fill="black" mask="url(#path-3-outside-2)"/>
<mask id="path-5-outside-3" maskUnits="userSpaceOnUse" x="840" y="20" width="140" height="140" fill="black">
<rect fill="white" x="840" y="20" width="140" height="140"/>
<path fill-rule="evenodd" clip-rule="evenodd" d="M880 40H860V140H880H940V120H960V60H940V40H880ZM880 60H940V120H880V60Z"/>
</mask>
<path fill-rule="evenodd" clip-rule="evenodd" d="M880 40H860V140H880H940V120H960V60H940V40H880ZM880 60H940V120H880V60Z" fill="white"/>
<path d="M860 40V20H840V40H860ZM860 140H840V160H860V140ZM940 140V160H960V140H940ZM960 120V140H980V120H960ZM960 60H980V40H960V60ZM940 40H960V20H940V40ZM880 60V40H860V60H880ZM880 120H860V140H880V120ZM860 60H880V20H860V60ZM880 140V40H840V140H880ZM880 120H860V160H880V120ZM880 160H940V120H880V160ZM960 140V120H920V140H960ZM940 140H960V100H940V140ZM980 120V60H940V120H980ZM960 40H940V80H960V40ZM960 60V40H920V60H960ZM940 20H880V60H940V20ZM880 80H940V40H880V80ZM920 60V120H960V60H920ZM940 100H880V140H940V100ZM860 60V120H900V60H860Z" fill="black" mask="url(#path-5-outside-3)"/>
<mask id="path-7-outside-4" maskUnits="userSpaceOnUse" x="720" y="20" width="140" height="140" fill="black">
<rect fill="white" x="720" y="20" width="140" height="140"/>
<path fill-rule="evenodd" clip-rule="evenodd" d="M820 40H760V60H740V140H760V100H820V140H840V60H820V40ZM820 60H760V80H820V60Z"/>
</mask>
<path fill-rule="evenodd" clip-rule="evenodd" d="M820 40H760V60H740V140H760V100H820V140H840V60H820V40ZM820 60H760V80H820V60Z" fill="white"/>
<path d="M760 40V20H740V40H760ZM820 40H840V20H820V40ZM740 60V40H720V60H740ZM740 140H720V160H740V140ZM760 140V160H780V140H760ZM760 100V80H740V100H760ZM820 100H840V80H820V100ZM820 140H800V160H820V140ZM840 140V160H860V140H840ZM840 60H860V40H840V60ZM760 80H740V100H760V80ZM820 80V100H840V80H820ZM760 60H820V20H760V60ZM780 60V40H740V60H780ZM760 40H740V80H760V40ZM720 60V140H760V60H720ZM740 160H760V120H740V160ZM780 140V100H740V140H780ZM760 120H820V80H760V120ZM800 100V140H840V100H800ZM820 160H840V120H820V160ZM860 140V60H820V140H860ZM840 40H820V80H840V40ZM800 40V60H840V40H800ZM820 40H760V80H820V40ZM780 80V60H740V80H780ZM820 60H760V100H820V60ZM800 60V80H840V60H800Z" fill="black" mask="url(#path-7-outside-4)"/>
<mask id="path-9-outside-5" maskUnits="userSpaceOnUse" x="600" y="20" width="140" height="140" fill="black">
<rect fill="white" x="600" y="20" width="140" height="140"/>
<path fill-rule="evenodd" clip-rule="evenodd" d="M640 40H620V140H640H700V120H720V60H700V40H640ZM640 60H700V120H640V60Z"/>
</mask>
<path fill-rule="evenodd" clip-rule="evenodd" d="M640 40H620V140H640H700V120H720V60H700V40H640ZM640 60H700V120H640V60Z" fill="white"/>
<path d="M620 40V20H600V40H620ZM620 140H600V160H620V140ZM700 140V160H720V140H700ZM720 120V140H740V120H720ZM720 60H740V40H720V60ZM700 40H720V20H700V40ZM640 60V40H620V60H640ZM640 120H620V140H640V120ZM620 60H640V20H620V60ZM640 140V40H600V140H640ZM640 120H620V160H640V120ZM640 160H700V120H640V160ZM720 140V120H680V140H720ZM700 140H720V100H700V140ZM740 120V60H700V120H740ZM720 40H700V80H720V40ZM720 60V40H680V60H720ZM700 20H640V60H700V20ZM640 80H700V40H640V80ZM680 60V120H720V60H680ZM700 100H640V140H700V100ZM620 60V120H660V60H620Z" fill="black" mask="url(#path-9-outside-5)"/>
<mask id="path-11-outside-6" maskUnits="userSpaceOnUse" x="480" y="20" width="140" height="140" fill="black">
<rect fill="white" x="480" y="20" width="140" height="140"/>
<path fill-rule="evenodd" clip-rule="evenodd" d="M520 40H500V140H520V80H540V100H560V120H580V140H600V40H580V100H560V80H540V60H520V40Z"/>
</mask>
<path fill-rule="evenodd" clip-rule="evenodd" d="M520 40H500V140H520V80H540V100H560V120H580V140H600V40H580V100H560V80H540V60H520V40Z" fill="white"/>
<path d="M500 40V20H480V40H500ZM520 40H540V20H520V40ZM500 140H480V160H500V140ZM520 140V160H540V140H520ZM520 80V60H500V80H520ZM540 100H520V120H540V100ZM560 120H540V140H560V120ZM580 120H600V100H580V120ZM580 140H560V160H580V140ZM600 140V160H620V140H600ZM600 40H620V20H600V40ZM580 40V20H560V40H580ZM580 100V120H600V100H580ZM560 80H580V60H560V80ZM540 60H560V40H540V60ZM520 60H500V80H520V60ZM500 60H520V20H500V60ZM520 140V40H480V140H520ZM520 120H500V160H520V120ZM500 80V140H540V80H500ZM520 100H540V60H520V100ZM520 80V100H560V80H520ZM540 120H560V80H540V120ZM540 100V120H580V100H540ZM560 140H580V100H560V140ZM560 120V140H600V120H560ZM580 160H600V120H580V160ZM620 140V40H580V140H620ZM600 20H580V60H600V20ZM560 40V100H600V40H560ZM580 80H560V120H580V80ZM580 100V80H540V100H580ZM560 60H540V100H560V60ZM560 80V60H520V80H560ZM540 40H520V80H540V40ZM500 40V60H540V40H500Z" fill="black" mask="url(#path-11-outside-6)"/>
<mask id="path-13-outside-7" maskUnits="userSpaceOnUse" x="360" y="20" width="140" height="140" fill="black">
<rect fill="white" x="360" y="20" width="140" height="140"/>
<path fill-rule="evenodd" clip-rule="evenodd" d="M400 40H380V120H400V140H420V120H440V140H460V120H480V40H460V120H440V60H420V120H400V40Z"/>
</mask>
<path fill-rule="evenodd" clip-rule="evenodd" d="M400 40H380V120H400V140H420V120H440V140H460V120H480V40H460V120H440V60H420V120H400V40Z" fill="white"/>
<path d="M380 40V20H360V40H380ZM400 40H420V20H400V40ZM380 120H360V140H380V120ZM400 140H380V160H400V140ZM420 140V160H440V140H420ZM440 140H420V160H440V140ZM460 140V160H480V140H460ZM480 120V140H500V120H480ZM480 40H500V20H480V40ZM460 40V20H440V40H460ZM440 60H460V40H440V60ZM420 60V40H400V60H420ZM380 60H400V20H380V60ZM400 120V40H360V120H400ZM400 100H380V140H400V100ZM380 120V140H420V120H380ZM400 160H420V120H400V160ZM440 140V120H400V140H440ZM420 140H440V100H420V140ZM420 120V140H460V120H420ZM440 160H460V120H440V160ZM480 140V120H440V140H480ZM460 140H480V100H460V140ZM500 120V40H460V120H500ZM480 20H460V60H480V20ZM440 40V120H480V40H440ZM460 100H440V140H460V100ZM460 120V60H420V120H460ZM440 40H420V80H440V40ZM400 60V120H440V60H400ZM420 100H400V140H420V100ZM380 40V120H420V40H380Z" fill="black" mask="url(#path-13-outside-7)"/>
<mask id="path-15-outside-8" maskUnits="userSpaceOnUse" x="240" y="20" width="140" height="140" fill="black">
<rect fill="white" x="240" y="20" width="140" height="140"/>
<path fill-rule="evenodd" clip-rule="evenodd" d="M340 40H280V60H260V140H280V100H340V140H360V60H340V40ZM340 60H280V80H340V60Z"/>
</mask>
<path fill-rule="evenodd" clip-rule="evenodd" d="M340 40H280V60H260V140H280V100H340V140H360V60H340V40ZM340 60H280V80H340V60Z" fill="white"/>
<path d="M280 40V20H260V40H280ZM340 40H360V20H340V40ZM260 60V40H240V60H260ZM260 140H240V160H260V140ZM280 140V160H300V140H280ZM280 100V80H260V100H280ZM340 100H360V80H340V100ZM340 140H320V160H340V140ZM360 140V160H380V140H360ZM360 60H380V40H360V60ZM280 80H260V100H280V80ZM340 80V100H360V80H340ZM280 60H340V20H280V60ZM300 60V40H260V60H300ZM280 40H260V80H280V40ZM240 60V140H280V60H240ZM260 160H280V120H260V160ZM300 140V100H260V140H300ZM280 120H340V80H280V120ZM320 100V140H360V100H320ZM340 160H360V120H340V160ZM380 140V60H340V140H380ZM360 40H340V80H360V40ZM320 40V60H360V40H320ZM340 40H280V80H340V40ZM300 80V60H260V80H300ZM340 60H280V100H340V60ZM320 60V80H360V60H320Z" fill="black" mask="url(#path-15-outside-8)"/>
<mask id="path-17-outside-9" maskUnits="userSpaceOnUse" x="120" y="20" width="140" height="140" fill="black">
<rect fill="white" x="120" y="20" width="140" height="140"/>
<path fill-rule="evenodd" clip-rule="evenodd" d="M160 40H140V140H160V100H220V140H240V40H220V80H160V40Z"/>
</mask>
<path fill-rule="evenodd" clip-rule="evenodd" d="M160 40H140V140H160V100H220V140H240V40H220V80H160V40Z" fill="white"/>
<path d="M140 40V20H120V40H140ZM160 40H180V20H160V40ZM140 140H120V160H140V140ZM160 140V160H180V140H160ZM160 100V80H140V100H160ZM220 100H240V80H220V100ZM220 140H200V160H220V140ZM240 140V160H260V140H240ZM240 40H260V20H240V40ZM220 40V20H200V40H220ZM220 80V100H240V80H220ZM160 80H140V100H160V80ZM140 60H160V20H140V60ZM160 140V40H120V140H160ZM160 120H140V160H160V120ZM140 100V140H180V100H140ZM160 120H220V80H160V120ZM200 100V140H240V100H200ZM220 160H240V120H220V160ZM260 140V40H220V140H260ZM240 20H220V60H240V20ZM200 40V80H240V40H200ZM220 60H160V100H220V60ZM140 40V80H180V40H140Z" fill="black" mask="url(#path-17-outside-9)"/>
<mask id="path-19-outside-10" maskUnits="userSpaceOnUse" x="0" y="20" width="140" height="140" fill="black">
<rect fill="white" y="20" width="140" height="140"/>
<path fill-rule="evenodd" clip-rule="evenodd" d="M120 40H40V60H20V80H40V100H100V120H20V140H100V120H120V100H100V80H40V60H120V40Z"/>
</mask>
<path fill-rule="evenodd" clip-rule="evenodd" d="M120 40H40V60H20V80H40V100H100V120H20V140H100V120H120V100H100V80H40V60H120V40Z" fill="white"/>
<path d="M40 40V20H20V40H40ZM120 40H140V20H120V40ZM20 60V40H0V60H20ZM20 80H0V100H20V80ZM40 100H20V120H40V100ZM20 120V100H0V120H20ZM20 140H0V160H20V140ZM100 140V160H120V140H100ZM120 120V140H140V120H120ZM120 100H140V80H120V100ZM100 80H120V60H100V80ZM120 60V80H140V60H120ZM40 60H120V20H40V60ZM60 60V40H20V60H60ZM40 40H20V80H40V40ZM0 60V80H40V60H0ZM20 100H40V60H20V100ZM20 80V100H60V80H20ZM40 120H100V80H40V120ZM80 100V120H120V100H80ZM100 100H20V140H100V100ZM0 120V140H40V120H0ZM20 160H100V120H20V160ZM120 140V120H80V140H120ZM100 140H120V100H100V140ZM140 120V100H100V120H140ZM120 80H100V120H120V80ZM120 100V80H80V100H120ZM100 60H40V100H100V60ZM60 80V60H20V80H60ZM120 40H40V80H120V40ZM100 40V60H140V40H100Z" fill="black" mask="url(#path-19-outside-10)"/>
<mask id="path-21-outside-11" maskUnits="userSpaceOnUse" x="1080" y="0" width="140" height="140" fill="black">
<rect fill="white" x="1080" width="140" height="140"/>
<path fill-rule="evenodd" clip-rule="evenodd" d="M1120 20H1100V40H1120V60H1140V120H1160V60H1180V40H1200V20H1180V40H1160V60H1140V40H1120V20Z"/>
</mask>
<path fill-rule="evenodd" clip-rule="evenodd" d="M1120 20H1100V40H1120V60H1140V120H1160V60H1180V40H1200V20H1180V40H1160V60H1140V40H1120V20Z" fill="white"/>
<path d="M1100 20V0H1080V20H1100ZM1120 20H1140V0H1120V20ZM1100 40H1080V60H1100V40ZM1120 60H1100V80H1120V60ZM1140 120H1120V140H1140V120ZM1160 120V140H1180V120H1160ZM1180 60V80H1200V60H1180ZM1200 40V60H1220V40H1200ZM1200 20H1220V0H1200V20ZM1180 20V0H1160V20H1180ZM1160 40V20H1140V40H1160ZM1140 40H1160V20H1140V40ZM1100 40H1120V0H1100V40ZM1120 40V20H1080V40H1120ZM1120 20H1100V60H1120V20ZM1100 40V60H1140V40H1100ZM1120 80H1140V40H1120V80ZM1120 60V120H1160V60H1120ZM1140 140H1160V100H1140V140ZM1180 120V60H1140V120H1180ZM1160 80H1180V40H1160V80ZM1200 60V40H1160V60H1200ZM1180 60H1200V20H1180V60ZM1220 40V20H1180V40H1220ZM1200 0H1180V40H1200V0ZM1160 20V40H1200V20H1160ZM1180 20H1160V60H1180V20ZM1140 40V60H1180V40H1140ZM1160 40H1140V80H1160V40ZM1160 60V40H1120V60H1160ZM1140 20H1120V60H1140V20ZM1100 20V40H1140V20H1100Z" fill="black" mask="url(#path-21-outside-11)"/>
<mask id="path-23-outside-12" maskUnits="userSpaceOnUse" x="960" y="0" width="140" height="140" fill="black">
<rect fill="white" x="960" width="140" height="140"/>
<path fill-rule="evenodd" clip-rule="evenodd" d="M1000 20H980V120H1000H1060V100H1080V40H1060V20H1000ZM1000 40H1060V100H1000V40Z"/>
</mask>
<path fill-rule="evenodd" clip-rule="evenodd" d="M1000 20H980V120H1000H1060V100H1080V40H1060V20H1000ZM1000 40H1060V100H1000V40Z" fill="white"/>
<path d="M980 20V0H960V20H980ZM980 120H960V140H980V120ZM1060 120V140H1080V120H1060ZM1080 100V120H1100V100H1080ZM1080 40H1100V20H1080V40ZM1060 20H1080V0H1060V20ZM1000 40V20H980V40H1000ZM1000 100H980V120H1000V100ZM980 40H1000V0H980V40ZM1000 120V20H960V120H1000ZM1000 100H980V140H1000V100ZM1000 140H1060V100H1000V140ZM1080 120V100H1040V120H1080ZM1060 120H1080V80H1060V120ZM1100 100V40H1060V100H1100ZM1080 20H1060V60H1080V20ZM1080 40V20H1040V40H1080ZM1060 0H1000V40H1060V0ZM1000 60H1060V20H1000V60ZM1040 40V100H1080V40H1040ZM1060 80H1000V120H1060V80ZM980 40V100H1020V40H980Z" fill="black" mask="url(#path-23-outside-12)"/>
<mask id="path-25-outside-13" maskUnits="userSpaceOnUse" x="840" y="0" width="140" height="140" fill="black">
<rect fill="white" x="840" width="140" height="140"/>
<path fill-rule="evenodd" clip-rule="evenodd" d="M880 20H860V120H880H940V100H960V40H940V20H880ZM880 40H940V100H880V40Z"/>
</mask>
<path fill-rule="evenodd" clip-rule="evenodd" d="M880 20H860V120H880H940V100H960V40H940V20H880ZM880 40H940V100H880V40Z" fill="white"/>
<path d="M860 20V0H840V20H860ZM860 120H840V140H860V120ZM940 120V140H960V120H940ZM960 100V120H980V100H960ZM960 40H980V20H960V40ZM940 20H960V0H940V20ZM880 40V20H860V40H880ZM880 100H860V120H880V100ZM860 40H880V0H860V40ZM880 120V20H840V120H880ZM880 100H860V140H880V100ZM880 140H940V100H880V140ZM960 120V100H920V120H960ZM940 120H960V80H940V120ZM980 100V40H940V100H980ZM960 20H940V60H960V20ZM960 40V20H920V40H960ZM940 0H880V40H940V0ZM880 60H940V20H880V60ZM920 40V100H960V40H920ZM940 80H880V120H940V80ZM860 40V100H900V40H860Z" fill="black" mask="url(#path-25-outside-13)"/>
<mask id="path-27-outside-14" maskUnits="userSpaceOnUse" x="720" y="0" width="140" height="140" fill="black">
<rect fill="white" x="720" width="140" height="140"/>
<path fill-rule="evenodd" clip-rule="evenodd" d="M820 20H760V40H740V120H760V80H820V120H840V40H820V20ZM820 40H760V60H820V40Z"/>
</mask>
<path fill-rule="evenodd" clip-rule="evenodd" d="M820 20H760V40H740V120H760V80H820V120H840V40H820V20ZM820 40H760V60H820V40Z" fill="white"/>
<path d="M760 20V0H740V20H760ZM820 20H840V0H820V20ZM740 40V20H720V40H740ZM740 120H720V140H740V120ZM760 120V140H780V120H760ZM760 80V60H740V80H760ZM820 80H840V60H820V80ZM820 120H800V140H820V120ZM840 120V140H860V120H840ZM840 40H860V20H840V40ZM760 60H740V80H760V60ZM820 60V80H840V60H820ZM760 40H820V0H760V40ZM780 40V20H740V40H780ZM760 20H740V60H760V20ZM720 40V120H760V40H720ZM740 140H760V100H740V140ZM780 120V80H740V120H780ZM760 100H820V60H760V100ZM800 80V120H840V80H800ZM820 140H840V100H820V140ZM860 120V40H820V120H860ZM840 20H820V60H840V20ZM800 20V40H840V20H800ZM820 20H760V60H820V20ZM780 60V40H740V60H780ZM820 40H760V80H820V40ZM800 40V60H840V40H800Z" fill="black" mask="url(#path-27-outside-14)"/>
<mask id="path-29-outside-15" maskUnits="userSpaceOnUse" x="600" y="0" width="140" height="140" fill="black">
<rect fill="white" x="600" width="140" height="140"/>
<path fill-rule="evenodd" clip-rule="evenodd" d="M640 20H620V120H640H700V100H720V40H700V20H640ZM640 40H700V100H640V40Z"/>
</mask>
<path fill-rule="evenodd" clip-rule="evenodd" d="M640 20H620V120H640H700V100H720V40H700V20H640ZM640 40H700V100H640V40Z" fill="white"/>
<path d="M620 20V0H600V20H620ZM620 120H600V140H620V120ZM700 120V140H720V120H700ZM720 100V120H740V100H720ZM720 40H740V20H720V40ZM700 20H720V0H700V20ZM640 40V20H620V40H640ZM640 100H620V120H640V100ZM620 40H640V0H620V40ZM640 120V20H600V120H640ZM640 100H620V140H640V100ZM640 140H700V100H640V140ZM720 120V100H680V120H720ZM700 120H720V80H700V120ZM740 100V40H700V100H740ZM720 20H700V60H720V20ZM720 40V20H680V40H720ZM700 0H640V40H700V0ZM640 60H700V20H640V60ZM680 40V100H720V40H680ZM700 80H640V120H700V80ZM620 40V100H660V40H620Z" fill="black" mask="url(#path-29-outside-15)"/>
<mask id="path-31-outside-16" maskUnits="userSpaceOnUse" x="480" y="0" width="140" height="140" fill="black">
<rect fill="white" x="480" width="140" height="140"/>
<path fill-rule="evenodd" clip-rule="evenodd" d="M520 20H500V120H520V60H540V80H560V100H580V120H600V20H580V80H560V60H540V40H520V20Z"/>
</mask>
<path fill-rule="evenodd" clip-rule="evenodd" d="M520 20H500V120H520V60H540V80H560V100H580V120H600V20H580V80H560V60H540V40H520V20Z" fill="white"/>
<path d="M500 20V0H480V20H500ZM520 20H540V0H520V20ZM500 120H480V140H500V120ZM520 120V140H540V120H520ZM520 60V40H500V60H520ZM540 80H520V100H540V80ZM560 100H540V120H560V100ZM580 100H600V80H580V100ZM580 120H560V140H580V120ZM600 120V140H620V120H600ZM600 20H620V0H600V20ZM580 20V0H560V20H580ZM580 80V100H600V80H580ZM560 60H580V40H560V60ZM540 40H560V20H540V40ZM520 40H500V60H520V40ZM500 40H520V0H500V40ZM520 120V20H480V120H520ZM520 100H500V140H520V100ZM500 60V120H540V60H500ZM520 80H540V40H520V80ZM520 60V80H560V60H520ZM540 100H560V60H540V100ZM540 80V100H580V80H540ZM560 120H580V80H560V120ZM560 100V120H600V100H560ZM580 140H600V100H580V140ZM620 120V20H580V120H620ZM600 0H580V40H600V0ZM560 20V80H600V20H560ZM580 60H560V100H580V60ZM580 80V60H540V80H580ZM560 40H540V80H560V40ZM560 60V40H520V60H560ZM540 20H520V60H540V20ZM500 20V40H540V20H500Z" fill="black" mask="url(#path-31-outside-16)"/>
<mask id="path-33-outside-17" maskUnits="userSpaceOnUse" x="360" y="0" width="140" height="140" fill="black">
<rect fill="white" x="360" width="140" height="140"/>
<path fill-rule="evenodd" clip-rule="evenodd" d="M400 20H380V100H400V120H420V100H440V120H460V100H480V20H460V100H440V40H420V100H400V20Z"/>
</mask>
<path fill-rule="evenodd" clip-rule="evenodd" d="M400 20H380V100H400V120H420V100H440V120H460V100H480V20H460V100H440V40H420V100H400V20Z" fill="white"/>
<path d="M380 20V0H360V20H380ZM400 20H420V0H400V20ZM380 100H360V120H380V100ZM400 120H380V140H400V120ZM420 120V140H440V120H420ZM440 120H420V140H440V120ZM460 120V140H480V120H460ZM480 100V120H500V100H480ZM480 20H500V0H480V20ZM460 20V0H440V20H460ZM440 40H460V20H440V40ZM420 40V20H400V40H420ZM380 40H400V0H380V40ZM400 100V20H360V100H400ZM400 80H380V120H400V80ZM380 100V120H420V100H380ZM400 140H420V100H400V140ZM440 120V100H400V120H440ZM420 120H440V80H420V120ZM420 100V120H460V100H420ZM440 140H460V100H440V140ZM480 120V100H440V120H480ZM460 120H480V80H460V120ZM500 100V20H460V100H500ZM480 0H460V40H480V0ZM440 20V100H480V20H440ZM460 80H440V120H460V80ZM460 100V40H420V100H460ZM440 20H420V60H440V20ZM400 40V100H440V40H400ZM420 80H400V120H420V80ZM380 20V100H420V20H380Z" fill="black" mask="url(#path-33-outside-17)"/>
<mask id="path-35-outside-18" maskUnits="userSpaceOnUse" x="240" y="0" width="140" height="140" fill="black">
<rect fill="white" x="240" width="140" height="140"/>
<path fill-rule="evenodd" clip-rule="evenodd" d="M340 20H280V40H260V120H280V80H340V120H360V40H340V20ZM340 40H280V60H340V40Z"/>
</mask>
<path fill-rule="evenodd" clip-rule="evenodd" d="M340 20H280V40H260V120H280V80H340V120H360V40H340V20ZM340 40H280V60H340V40Z" fill="white"/>
<path d="M280 20V0H260V20H280ZM340 20H360V0H340V20ZM260 40V20H240V40H260ZM260 120H240V140H260V120ZM280 120V140H300V120H280ZM280 80V60H260V80H280ZM340 80H360V60H340V80ZM340 120H320V140H340V120ZM360 120V140H380V120H360ZM360 40H380V20H360V40ZM280 60H260V80H280V60ZM340 60V80H360V60H340ZM280 40H340V0H280V40ZM300 40V20H260V40H300ZM280 20H260V60H280V20ZM240 40V120H280V40H240ZM260 140H280V100H260V140ZM300 120V80H260V120H300ZM280 100H340V60H280V100ZM320 80V120H360V80H320ZM340 140H360V100H340V140ZM380 120V40H340V120H380ZM360 20H340V60H360V20ZM320 20V40H360V20H320ZM340 20H280V60H340V20ZM300 60V40H260V60H300ZM340 40H280V80H340V40ZM320 40V60H360V40H320Z" fill="black" mask="url(#path-35-outside-18)"/>
<mask id="path-37-outside-19" maskUnits="userSpaceOnUse" x="120" y="0" width="140" height="140" fill="black">
<rect fill="white" x="120" width="140" height="140"/>
<path fill-rule="evenodd" clip-rule="evenodd" d="M160 20H140V120H160V80H220V120H240V20H220V60H160V20Z"/>
</mask>
<path fill-rule="evenodd" clip-rule="evenodd" d="M160 20H140V120H160V80H220V120H240V20H220V60H160V20Z" fill="white"/>
<path d="M140 20V0H120V20H140ZM160 20H180V0H160V20ZM140 120H120V140H140V120ZM160 120V140H180V120H160ZM160 80V60H140V80H160ZM220 80H240V60H220V80ZM220 120H200V140H220V120ZM240 120V140H260V120H240ZM240 20H260V0H240V20ZM220 20V0H200V20H220ZM220 60V80H240V60H220ZM160 60H140V80H160V60ZM140 40H160V0H140V40ZM160 120V20H120V120H160ZM160 100H140V140H160V100ZM140 80V120H180V80H140ZM160 100H220V60H160V100ZM200 80V120H240V80H200ZM220 140H240V100H220V140ZM260 120V20H220V120H260ZM240 0H220V40H240V0ZM200 20V60H240V20H200ZM220 40H160V80H220V40ZM140 20V60H180V20H140Z" fill="black" mask="url(#path-37-outside-19)"/>
<mask id="path-39-outside-20" maskUnits="userSpaceOnUse" x="0" y="0" width="140" height="140" fill="black">
<rect fill="white" width="140" height="140"/>
<path fill-rule="evenodd" clip-rule="evenodd" d="M120 20H40V40H20V60H40V80H100V100H20V120H100V100H120V80H100V60H40V40H120V20Z"/>
</mask>
<path fill-rule="evenodd" clip-rule="evenodd" d="M120 20H40V40H20V60H40V80H100V100H20V120H100V100H120V80H100V60H40V40H120V20Z" fill="white"/>
<path d="M40 20V0H20V20H40ZM120 20H140V0H120V20ZM20 40V20H0V40H20ZM20 60H0V80H20V60ZM40 80H20V100H40V80ZM20 100V80H0V100H20ZM20 120H0V140H20V120ZM100 120V140H120V120H100ZM120 100V120H140V100H120ZM120 80H140V60H120V80ZM100 60H120V40H100V60ZM120 40V60H140V40H120ZM40 40H120V0H40V40ZM60 40V20H20V40H60ZM40 20H20V60H40V20ZM0 40V60H40V40H0ZM20 80H40V40H20V80ZM20 60V80H60V60H20ZM40 100H100V60H40V100ZM80 80V100H120V80H80ZM100 80H20V120H100V80ZM0 100V120H40V100H0ZM20 140H100V100H20V140ZM120 120V100H80V120H120ZM100 120H120V80H100V120ZM140 100V80H100V100H140ZM120 60H100V100H120V60ZM120 80V60H80V80H120ZM100 40H40V80H100V40ZM60 60V40H20V60H60ZM120 20H40V60H120V20ZM100 20V40H140V20H100Z" fill="black" mask="url(#path-39-outside-20)"/>
<path fill-rule="evenodd" clip-rule="evenodd" d="M1120 40H1100V60H1120V80H1140V60H1120V40ZM1160 60V80H1180V60H1200V40H1180V60H1160ZM1160 120H1140V140H1160V120Z" fill="#999999"/>
<path fill-rule="evenodd" clip-rule="evenodd" d="M1000 120H980V140H1000H1060V120H1080V100H1060V120H1000ZM1000 60H1060V40H1000V60Z" fill="#999999"/>
<path fill-rule="evenodd" clip-rule="evenodd" d="M880 120H860V140H880H940V120H960V100H940V120H880ZM880 60H940V40H880V60Z" fill="#999999"/>
<path fill-rule="evenodd" clip-rule="evenodd" d="M760 120H740V140H760V120ZM760 100H820V80H760V100ZM820 120V140H840V120H820ZM820 60V40H760V60H820Z" fill="#999999"/>
<path fill-rule="evenodd" clip-rule="evenodd" d="M640 120H620V140H640H700V120H720V100H700V120H640ZM640 60H700V40H640V60Z" fill="#999999"/>
<path fill-rule="evenodd" clip-rule="evenodd" d="M500 120V140H520V120H500ZM520 80H540V100H560V120H580V140H600V120H580V100H560V80H540V60H520V80Z" fill="#999999"/>
<path fill-rule="evenodd" clip-rule="evenodd" d="M380 100V120H400V140H420V120H440V140H460V120H480V100H460V120H440V100H420V120H400V100H380Z" fill="#999999"/>
<path fill-rule="evenodd" clip-rule="evenodd" d="M280 120H260V140H280V120ZM280 100H340V80H280V100ZM340 120V140H360V120H340ZM340 60V40H280V60H340Z" fill="#999999"/>
<path fill-rule="evenodd" clip-rule="evenodd" d="M140 120V140H160V120H140ZM160 100H220V80H160V100ZM220 120V140H240V120H220Z" fill="#999999"/>
<path fill-rule="evenodd" clip-rule="evenodd" d="M120 40H40V60H20V80H40V100H100V120H20V140H100V120H120V100H100V80H40V60H100H120V40Z" fill="#999999"/>
</svg>
