<svg width="1180" height="120" viewBox="0 0 1180 120" fill="none" xmlns="http://www.w3.org/2000/svg">
<path fill-rule="evenodd" clip-rule="evenodd" d="M1100 20H1080V40H1100V60H1120V120H1140V60H1160V40H1180V20H1160V40H1140V60H1120V40H1100V20Z" fill="#999999"/>
<path fill-rule="evenodd" clip-rule="evenodd" d="M980 20H960V120H980H1040V100H1060V40H1040V20H980ZM980 40H1040V100H980V40Z" fill="#999999"/>
<path fill-rule="evenodd" clip-rule="evenodd" d="M860 20H840V120H860H920V100H940V40H920V20H860ZM860 40H920V100H860V40Z" fill="#999999"/>
<path fill-rule="evenodd" clip-rule="evenodd" d="M800 20H740V40H720V120H740V80H800V120H820V40H800V20ZM800 40H740V60H800V40Z" fill="#999999"/>
<path fill-rule="evenodd" clip-rule="evenodd" d="M620 20H600V120H620H680V100H700V40H680V20H620ZM620 40H680V100H620V40Z" fill="#999999"/>
<path fill-rule="evenodd" clip-rule="evenodd" d="M500 20H480V120H500V60H520V80H540V100H560V120H580V20H560V80H540V60H520V40H500V20Z" fill="#999999"/>
<path fill-rule="evenodd" clip-rule="evenodd" d="M380 20H360V100H380V120H400V100H420V120H440V100H460V20H440V100H420V40H400V100H380V20Z" fill="#999999"/>
<path fill-rule="evenodd" clip-rule="evenodd" d="M320 20H260V40H240V120H260V80H320V120H340V40H320V20ZM320 40H260V60H320V40Z" fill="#999999"/>
<path fill-rule="evenodd" clip-rule="evenodd" d="M140 20H120V120H140V80H200V120H220V20H200V60H140V20Z" fill="#999999"/>
<path fill-rule="evenodd" clip-rule="evenodd" d="M100 20H20V40H0V60H20V80H80V100H0V120H80V100H100V80H80V60H20V40H100V20Z" fill="#999999"/>
<path fill-rule="evenodd" clip-rule="evenodd" d="M1100 0H1080V20H1100V40H1120V100H1140V40H1160V20H1180V0H1160V20H1140V40H1120V20H1100V0Z" fill="white"/>
<path fill-rule="evenodd" clip-rule="evenodd" d="M980 0H960V100H980H1040V80H1060V20H1040V0H980ZM980 20H1040V80H980V20Z" fill="white"/>
<path fill-rule="evenodd" clip-rule="evenodd" d="M860 0H840V100H860H920V80H940V20H920V0H860ZM860 20H920V80H860V20Z" fill="white"/>
<path fill-rule="evenodd" clip-rule="evenodd" d="M800 0H740V20H720V100H740V60H800V100H820V20H800V0ZM800 20H740V40H800V20Z" fill="white"/>
<path fill-rule="evenodd" clip-rule="evenodd" d="M620 0H600V100H620H680V80H700V20H680V0H620ZM620 20H680V80H620V20Z" fill="white"/>
<path fill-rule="evenodd" clip-rule="evenodd" d="M500 0H480V100H500V40H520V60H540V80H560V100H580V0H560V60H540V40H520V20H500V0Z" fill="white"/>
<path fill-rule="evenodd" clip-rule="evenodd" d="M380 0H360V80H380V100H400V80H420V100H440V80H460V0H440V80H420V20H400V80H380V0Z" fill="white"/>
<path fill-rule="evenodd" clip-rule="evenodd" d="M320 0H260V20H240V100H260V60H320V100H340V20H320V0ZM320 20H260V40H320V20Z" fill="white"/>
<path fill-rule="evenodd" clip-rule="evenodd" d="M140 0H120V100H140V60H200V100H220V0H200V40H140V0Z" fill="white"/>
<path fill-rule="evenodd" clip-rule="evenodd" d="M100 0H20V20H0V40H20V60H80V80H0V100H80V80H100V60H80V40H20V20H100V0Z" fill="white"/>
</svg>
