<svg width="1222" height="162" viewBox="0 0 1222 162" fill="none" xmlns="http://www.w3.org/2000/svg">
<mask id="path-1-outside-1" maskUnits="userSpaceOnUse" x="1080" y="20" width="142" height="142" fill="black">
<rect fill="white" x="1080" y="20" width="142" height="142"/>
<path fill-rule="evenodd" clip-rule="evenodd" d="M1121 41H1101V61H1121V81H1141V141H1161V81H1181V61H1201V41H1181V61H1161V81H1141V61H1121V41Z"/>
</mask>
<path fill-rule="evenodd" clip-rule="evenodd" d="M1121 41H1101V61H1121V81H1141V141H1161V81H1181V61H1201V41H1181V61H1161V81H1141V61H1121V41Z" fill="white"/>
<path d="M1101 41V20H1080V41H1101ZM1121 41H1142V20H1121V41ZM1101 61H1080V82H1101V61ZM1121 81H1100V102H1121V81ZM1141 141H1120V162H1141V141ZM1161 141V162H1182V141H1161ZM1181 81V102H1202V81H1181ZM1201 61V82H1222V61H1201ZM1201 41H1222V20H1201V41ZM1181 41V20H1160V41H1181ZM1161 61V40H1140V61H1161ZM1141 61H1162V40H1141V61ZM1101 62H1121V20H1101V62ZM1122 61V41H1080V61H1122ZM1121 40H1101V82H1121V40ZM1100 61V81H1142V61H1100ZM1121 102H1141V60H1121V102ZM1120 81V141H1162V81H1120ZM1141 162H1161V120H1141V162ZM1182 141V81H1140V141H1182ZM1161 102H1181V60H1161V102ZM1202 81V61H1160V81H1202ZM1181 82H1201V40H1181V82ZM1222 61V41H1180V61H1222ZM1201 20H1181V62H1201V20ZM1160 41V61H1202V41H1160ZM1181 40H1161V82H1181V40ZM1140 61V81H1182V61H1140ZM1161 60H1141V102H1161V60ZM1162 81V61H1120V81H1162ZM1141 40H1121V82H1141V40ZM1100 41V61H1142V41H1100Z" fill="black" mask="url(#path-1-outside-1)"/>
<mask id="path-3-outside-2" maskUnits="userSpaceOnUse" x="960" y="20" width="142" height="142" fill="black">
<rect fill="white" x="960" y="20" width="142" height="142"/>
<path fill-rule="evenodd" clip-rule="evenodd" d="M1001 41H981V141H1001H1061V121H1081V61H1061V41H1001ZM1001 61H1061V121H1001V61Z"/>
</mask>
<path fill-rule="evenodd" clip-rule="evenodd" d="M1001 41H981V141H1001H1061V121H1081V61H1061V41H1001ZM1001 61H1061V121H1001V61Z" fill="white"/>
<path d="M981 41V20H960V41H981ZM981 141H960V162H981V141ZM1061 141V162H1082V141H1061ZM1081 121V142H1102V121H1081ZM1081 61H1102V40H1081V61ZM1061 41H1082V20H1061V41ZM1001 61V40H980V61H1001ZM1001 121H980V142H1001V121ZM981 62H1001V20H981V62ZM1002 141V41H960V141H1002ZM1001 120H981V162H1001V120ZM1001 162H1061V120H1001V162ZM1082 141V121H1040V141H1082ZM1061 142H1081V100H1061V142ZM1102 121V61H1060V121H1102ZM1081 40H1061V82H1081V40ZM1082 61V41H1040V61H1082ZM1061 20H1001V62H1061V20ZM1001 82H1061V40H1001V82ZM1040 61V121H1082V61H1040ZM1061 100H1001V142H1061V100ZM980 61V121H1022V61H980Z" fill="black" mask="url(#path-3-outside-2)"/>
<mask id="path-5-outside-3" maskUnits="userSpaceOnUse" x="840" y="20" width="142" height="142" fill="black">
<rect fill="white" x="840" y="20" width="142" height="142"/>
<path fill-rule="evenodd" clip-rule="evenodd" d="M881 41H861V141H881H941V121H961V61H941V41H881ZM881 61H941V121H881V61Z"/>
</mask>
<path fill-rule="evenodd" clip-rule="evenodd" d="M881 41H861V141H881H941V121H961V61H941V41H881ZM881 61H941V121H881V61Z" fill="white"/>
<path d="M861 41V20H840V41H861ZM861 141H840V162H861V141ZM941 141V162H962V141H941ZM961 121V142H982V121H961ZM961 61H982V40H961V61ZM941 41H962V20H941V41ZM881 61V40H860V61H881ZM881 121H860V142H881V121ZM861 62H881V20H861V62ZM882 141V41H840V141H882ZM881 120H861V162H881V120ZM881 162H941V120H881V162ZM962 141V121H920V141H962ZM941 142H961V100H941V142ZM982 121V61H940V121H982ZM961 40H941V82H961V40ZM962 61V41H920V61H962ZM941 20H881V62H941V20ZM881 82H941V40H881V82ZM920 61V121H962V61H920ZM941 100H881V142H941V100ZM860 61V121H902V61H860Z" fill="black" mask="url(#path-5-outside-3)"/>
<mask id="path-7-outside-4" maskUnits="userSpaceOnUse" x="720" y="20" width="142" height="142" fill="black">
<rect fill="white" x="720" y="20" width="142" height="142"/>
<path fill-rule="evenodd" clip-rule="evenodd" d="M821 41H761V61H741V141H761V101H821V141H841V61H821V41ZM821 61H761V81H821V61Z"/>
</mask>
<path fill-rule="evenodd" clip-rule="evenodd" d="M821 41H761V61H741V141H761V101H821V141H841V61H821V41ZM821 61H761V81H821V61Z" fill="white"/>
<path d="M761 41V20H740V41H761ZM821 41H842V20H821V41ZM741 61V40H720V61H741ZM741 141H720V162H741V141ZM761 141V162H782V141H761ZM761 101V80H740V101H761ZM821 101H842V80H821V101ZM821 141H800V162H821V141ZM841 141V162H862V141H841ZM841 61H862V40H841V61ZM761 81H740V102H761V81ZM821 81V102H842V81H821ZM761 62H821V20H761V62ZM782 61V41H740V61H782ZM761 40H741V82H761V40ZM720 61V141H762V61H720ZM741 162H761V120H741V162ZM782 141V101H740V141H782ZM761 122H821V80H761V122ZM800 101V141H842V101H800ZM821 162H841V120H821V162ZM862 141V61H820V141H862ZM841 40H821V82H841V40ZM800 41V61H842V41H800ZM821 40H761V82H821V40ZM782 81V61H740V81H782ZM821 60H761V102H821V60ZM800 61V81H842V61H800Z" fill="black" mask="url(#path-7-outside-4)"/>
<mask id="path-9-outside-5" maskUnits="userSpaceOnUse" x="600" y="20" width="142" height="142" fill="black">
<rect fill="white" x="600" y="20" width="142" height="142"/>
<path fill-rule="evenodd" clip-rule="evenodd" d="M641 41H621V141H641H701V121H721V61H701V41H641ZM641 61H701V121H641V61Z"/>
</mask>
<path fill-rule="evenodd" clip-rule="evenodd" d="M641 41H621V141H641H701V121H721V61H701V41H641ZM641 61H701V121H641V61Z" fill="white"/>
<path d="M621 41V20H600V41H621ZM621 141H600V162H621V141ZM701 141V162H722V141H701ZM721 121V142H742V121H721ZM721 61H742V40H721V61ZM701 41H722V20H701V41ZM641 61V40H620V61H641ZM641 121H620V142H641V121ZM621 62H641V20H621V62ZM642 141V41H600V141H642ZM641 120H621V162H641V120ZM641 162H701V120H641V162ZM722 141V121H680V141H722ZM701 142H721V100H701V142ZM742 121V61H700V121H742ZM721 40H701V82H721V40ZM722 61V41H680V61H722ZM701 20H641V62H701V20ZM641 82H701V40H641V82ZM680 61V121H722V61H680ZM701 100H641V142H701V100ZM620 61V121H662V61H620Z" fill="black" mask="url(#path-9-outside-5)"/>
<mask id="path-11-outside-6" maskUnits="userSpaceOnUse" x="480" y="20" width="142" height="142" fill="black">
<rect fill="white" x="480" y="20" width="142" height="142"/>
<path fill-rule="evenodd" clip-rule="evenodd" d="M521 41H501V141H521V81H541V101H561V121H581V141H601V41H581V101H561V81H541V61H521V41Z"/>
</mask>
<path fill-rule="evenodd" clip-rule="evenodd" d="M521 41H501V141H521V81H541V101H561V121H581V141H601V41H581V101H561V81H541V61H521V41Z" fill="white"/>
<path d="M501 41V20H480V41H501ZM521 41H542V20H521V41ZM501 141H480V162H501V141ZM521 141V162H542V141H521ZM521 81V60H500V81H521ZM541 101H520V122H541V101ZM561 121H540V142H561V121ZM581 121H602V100H581V121ZM581 141H560V162H581V141ZM601 141V162H622V141H601ZM601 41H622V20H601V41ZM581 41V20H560V41H581ZM581 101V122H602V101H581ZM561 81H582V60H561V81ZM541 61H562V40H541V61ZM521 61H500V82H521V61ZM501 62H521V20H501V62ZM522 141V41H480V141H522ZM521 120H501V162H521V120ZM500 81V141H542V81H500ZM521 102H541V60H521V102ZM520 81V101H562V81H520ZM541 122H561V80H541V122ZM540 101V121H582V101H540ZM561 142H581V100H561V142ZM560 121V141H602V121H560ZM581 162H601V120H581V162ZM622 141V41H580V141H622ZM601 20H581V62H601V20ZM560 41V101H602V41H560ZM581 80H561V122H581V80ZM582 101V81H540V101H582ZM561 60H541V102H561V60ZM562 81V61H520V81H562ZM541 40H521V82H541V40ZM500 41V61H542V41H500Z" fill="black" mask="url(#path-11-outside-6)"/>
<mask id="path-13-outside-7" maskUnits="userSpaceOnUse" x="360" y="20" width="142" height="142" fill="black">
<rect fill="white" x="360" y="20" width="142" height="142"/>
<path fill-rule="evenodd" clip-rule="evenodd" d="M401 41H381V121H401V141H421V121H441V141H461V121H481V41H461V121H441V61H421V121H401V41Z"/>
</mask>
<path fill-rule="evenodd" clip-rule="evenodd" d="M401 41H381V121H401V141H421V121H441V141H461V121H481V41H461V121H441V61H421V121H401V41Z" fill="white"/>
<path d="M381 41V20H360V41H381ZM401 41H422V20H401V41ZM381 121H360V142H381V121ZM401 141H380V162H401V141ZM421 141V162H442V141H421ZM441 141H420V162H441V141ZM461 141V162H482V141H461ZM481 121V142H502V121H481ZM481 41H502V20H481V41ZM461 41V20H440V41H461ZM441 61H462V40H441V61ZM421 61V40H400V61H421ZM381 62H401V20H381V62ZM402 121V41H360V121H402ZM401 100H381V142H401V100ZM380 121V141H422V121H380ZM401 162H421V120H401V162ZM442 141V121H400V141H442ZM421 142H441V100H421V142ZM420 121V141H462V121H420ZM441 162H461V120H441V162ZM482 141V121H440V141H482ZM461 142H481V100H461V142ZM502 121V41H460V121H502ZM481 20H461V62H481V20ZM440 41V121H482V41H440ZM461 100H441V142H461V100ZM462 121V61H420V121H462ZM441 40H421V82H441V40ZM400 61V121H442V61H400ZM421 100H401V142H421V100ZM380 41V121H422V41H380Z" fill="black" mask="url(#path-13-outside-7)"/>
<mask id="path-15-outside-8" maskUnits="userSpaceOnUse" x="240" y="20" width="142" height="142" fill="black">
<rect fill="white" x="240" y="20" width="142" height="142"/>
<path fill-rule="evenodd" clip-rule="evenodd" d="M341 41H281V61H261V141H281V101H341V141H361V61H341V41ZM341 61H281V81H341V61Z"/>
</mask>
<path fill-rule="evenodd" clip-rule="evenodd" d="M341 41H281V61H261V141H281V101H341V141H361V61H341V41ZM341 61H281V81H341V61Z" fill="white"/>
<path d="M281 41V20H260V41H281ZM341 41H362V20H341V41ZM261 61V40H240V61H261ZM261 141H240V162H261V141ZM281 141V162H302V141H281ZM281 101V80H260V101H281ZM341 101H362V80H341V101ZM341 141H320V162H341V141ZM361 141V162H382V141H361ZM361 61H382V40H361V61ZM281 81H260V102H281V81ZM341 81V102H362V81H341ZM281 62H341V20H281V62ZM302 61V41H260V61H302ZM281 40H261V82H281V40ZM240 61V141H282V61H240ZM261 162H281V120H261V162ZM302 141V101H260V141H302ZM281 122H341V80H281V122ZM320 101V141H362V101H320ZM341 162H361V120H341V162ZM382 141V61H340V141H382ZM361 40H341V82H361V40ZM320 41V61H362V41H320ZM341 40H281V82H341V40ZM302 81V61H260V81H302ZM341 60H281V102H341V60ZM320 61V81H362V61H320Z" fill="black" mask="url(#path-15-outside-8)"/>
<mask id="path-17-outside-9" maskUnits="userSpaceOnUse" x="120" y="20" width="142" height="142" fill="black">
<rect fill="white" x="120" y="20" width="142" height="142"/>
<path fill-rule="evenodd" clip-rule="evenodd" d="M161 41H141V141H161V101H221V141H241V41H221V81H161V41Z"/>
</mask>
<path fill-rule="evenodd" clip-rule="evenodd" d="M161 41H141V141H161V101H221V141H241V41H221V81H161V41Z" fill="white"/>
<path d="M141 41V20H120V41H141ZM161 41H182V20H161V41ZM141 141H120V162H141V141ZM161 141V162H182V141H161ZM161 101V80H140V101H161ZM221 101H242V80H221V101ZM221 141H200V162H221V141ZM241 141V162H262V141H241ZM241 41H262V20H241V41ZM221 41V20H200V41H221ZM221 81V102H242V81H221ZM161 81H140V102H161V81ZM141 62H161V20H141V62ZM162 141V41H120V141H162ZM161 120H141V162H161V120ZM140 101V141H182V101H140ZM161 122H221V80H161V122ZM200 101V141H242V101H200ZM221 162H241V120H221V162ZM262 141V41H220V141H262ZM241 20H221V62H241V20ZM200 41V81H242V41H200ZM221 60H161V102H221V60ZM140 41V81H182V41H140Z" fill="black" mask="url(#path-17-outside-9)"/>
<mask id="path-19-outside-10" maskUnits="userSpaceOnUse" x="0" y="20" width="142" height="142" fill="black">
<rect fill="white" y="20" width="142" height="142"/>
<path fill-rule="evenodd" clip-rule="evenodd" d="M121 41H41V61H21V81H41V101H101V121H21V141H101V121H121V101H101V81H41V61H121V41Z"/>
</mask>
<path fill-rule="evenodd" clip-rule="evenodd" d="M121 41H41V61H21V81H41V101H101V121H21V141H101V121H121V101H101V81H41V61H121V41Z" fill="white"/>
<path d="M41 41V20H20V41H41ZM121 41H142V20H121V41ZM21 61V40H0V61H21ZM21 81H0V102H21V81ZM41 101H20V122H41V101ZM21 121V100H0V121H21ZM21 141H0V162H21V141ZM101 141V162H122V141H101ZM121 121V142H142V121H121ZM121 101H142V80H121V101ZM101 81H122V60H101V81ZM121 61V82H142V61H121ZM41 62H121V20H41V62ZM62 61V41H20V61H62ZM41 40H21V82H41V40ZM0 61V81H42V61H0ZM21 102H41V60H21V102ZM20 81V101H62V81H20ZM41 122H101V80H41V122ZM80 101V121H122V101H80ZM101 100H21V142H101V100ZM0 121V141H42V121H0ZM21 162H101V120H21V162ZM122 141V121H80V141H122ZM101 142H121V100H101V142ZM142 121V101H100V121H142ZM121 80H101V122H121V80ZM122 101V81H80V101H122ZM101 60H41V102H101V60ZM62 81V61H20V81H62ZM121 40H41V82H121V40ZM100 41V61H142V41H100Z" fill="black" mask="url(#path-19-outside-10)"/>
<mask id="path-21-outside-11" maskUnits="userSpaceOnUse" x="1080" y="0" width="142" height="142" fill="black">
<rect fill="white" x="1080" width="142" height="142"/>
<path fill-rule="evenodd" clip-rule="evenodd" d="M1121 21H1101V41H1121V61H1141V121H1161V61H1181V41H1201V21H1181V41H1161V61H1141V41H1121V21Z"/>
</mask>
<path fill-rule="evenodd" clip-rule="evenodd" d="M1121 21H1101V41H1121V61H1141V121H1161V61H1181V41H1201V21H1181V41H1161V61H1141V41H1121V21Z" fill="white"/>
<path d="M1101 21V0H1080V21H1101ZM1121 21H1142V0H1121V21ZM1101 41H1080V62H1101V41ZM1121 61H1100V82H1121V61ZM1141 121H1120V142H1141V121ZM1161 121V142H1182V121H1161ZM1181 61V82H1202V61H1181ZM1201 41V62H1222V41H1201ZM1201 21H1222V0H1201V21ZM1181 21V0H1160V21H1181ZM1161 41V20H1140V41H1161ZM1141 41H1162V20H1141V41ZM1101 42H1121V0H1101V42ZM1122 41V21H1080V41H1122ZM1121 20H1101V62H1121V20ZM1100 41V61H1142V41H1100ZM1121 82H1141V40H1121V82ZM1120 61V121H1162V61H1120ZM1141 142H1161V100H1141V142ZM1182 121V61H1140V121H1182ZM1161 82H1181V40H1161V82ZM1202 61V41H1160V61H1202ZM1181 62H1201V20H1181V62ZM1222 41V21H1180V41H1222ZM1201 0H1181V42H1201V0ZM1160 21V41H1202V21H1160ZM1181 20H1161V62H1181V20ZM1140 41V61H1182V41H1140ZM1161 40H1141V82H1161V40ZM1162 61V41H1120V61H1162ZM1141 20H1121V62H1141V20ZM1100 21V41H1142V21H1100Z" fill="black" mask="url(#path-21-outside-11)"/>
<mask id="path-23-outside-12" maskUnits="userSpaceOnUse" x="960" y="0" width="142" height="142" fill="black">
<rect fill="white" x="960" width="142" height="142"/>
<path fill-rule="evenodd" clip-rule="evenodd" d="M1001 21H981V121H1001H1061V101H1081V41H1061V21H1001ZM1001 41H1061V101H1001V41Z"/>
</mask>
<path fill-rule="evenodd" clip-rule="evenodd" d="M1001 21H981V121H1001H1061V101H1081V41H1061V21H1001ZM1001 41H1061V101H1001V41Z" fill="white"/>
<path d="M981 21V0H960V21H981ZM981 121H960V142H981V121ZM1061 121V142H1082V121H1061ZM1081 101V122H1102V101H1081ZM1081 41H1102V20H1081V41ZM1061 21H1082V0H1061V21ZM1001 41V20H980V41H1001ZM1001 101H980V122H1001V101ZM981 42H1001V0H981V42ZM1002 121V21H960V121H1002ZM1001 100H981V142H1001V100ZM1001 142H1061V100H1001V142ZM1082 121V101H1040V121H1082ZM1061 122H1081V80H1061V122ZM1102 101V41H1060V101H1102ZM1081 20H1061V62H1081V20ZM1082 41V21H1040V41H1082ZM1061 0H1001V42H1061V0ZM1001 62H1061V20H1001V62ZM1040 41V101H1082V41H1040ZM1061 80H1001V122H1061V80ZM980 41V101H1022V41H980Z" fill="black" mask="url(#path-23-outside-12)"/>
<mask id="path-25-outside-13" maskUnits="userSpaceOnUse" x="840" y="0" width="142" height="142" fill="black">
<rect fill="white" x="840" width="142" height="142"/>
<path fill-rule="evenodd" clip-rule="evenodd" d="M881 21H861V121H881H941V101H961V41H941V21H881ZM881 41H941V101H881V41Z"/>
</mask>
<path fill-rule="evenodd" clip-rule="evenodd" d="M881 21H861V121H881H941V101H961V41H941V21H881ZM881 41H941V101H881V41Z" fill="white"/>
<path d="M861 21V0H840V21H861ZM861 121H840V142H861V121ZM941 121V142H962V121H941ZM961 101V122H982V101H961ZM961 41H982V20H961V41ZM941 21H962V0H941V21ZM881 41V20H860V41H881ZM881 101H860V122H881V101ZM861 42H881V0H861V42ZM882 121V21H840V121H882ZM881 100H861V142H881V100ZM881 142H941V100H881V142ZM962 121V101H920V121H962ZM941 122H961V80H941V122ZM982 101V41H940V101H982ZM961 20H941V62H961V20ZM962 41V21H920V41H962ZM941 0H881V42H941V0ZM881 62H941V20H881V62ZM920 41V101H962V41H920ZM941 80H881V122H941V80ZM860 41V101H902V41H860Z" fill="black" mask="url(#path-25-outside-13)"/>
<mask id="path-27-outside-14" maskUnits="userSpaceOnUse" x="720" y="0" width="142" height="142" fill="black">
<rect fill="white" x="720" width="142" height="142"/>
<path fill-rule="evenodd" clip-rule="evenodd" d="M821 21H761V41H741V121H761V81H821V121H841V41H821V21ZM821 41H761V61H821V41Z"/>
</mask>
<path fill-rule="evenodd" clip-rule="evenodd" d="M821 21H761V41H741V121H761V81H821V121H841V41H821V21ZM821 41H761V61H821V41Z" fill="white"/>
<path d="M761 21V0H740V21H761ZM821 21H842V0H821V21ZM741 41V20H720V41H741ZM741 121H720V142H741V121ZM761 121V142H782V121H761ZM761 81V60H740V81H761ZM821 81H842V60H821V81ZM821 121H800V142H821V121ZM841 121V142H862V121H841ZM841 41H862V20H841V41ZM761 61H740V82H761V61ZM821 61V82H842V61H821ZM761 42H821V0H761V42ZM782 41V21H740V41H782ZM761 20H741V62H761V20ZM720 41V121H762V41H720ZM741 142H761V100H741V142ZM782 121V81H740V121H782ZM761 102H821V60H761V102ZM800 81V121H842V81H800ZM821 142H841V100H821V142ZM862 121V41H820V121H862ZM841 20H821V62H841V20ZM800 21V41H842V21H800ZM821 20H761V62H821V20ZM782 61V41H740V61H782ZM821 40H761V82H821V40ZM800 41V61H842V41H800Z" fill="black" mask="url(#path-27-outside-14)"/>
<mask id="path-29-outside-15" maskUnits="userSpaceOnUse" x="600" y="0" width="142" height="142" fill="black">
<rect fill="white" x="600" width="142" height="142"/>
<path fill-rule="evenodd" clip-rule="evenodd" d="M641 21H621V121H641H701V101H721V41H701V21H641ZM641 41H701V101H641V41Z"/>
</mask>
<path fill-rule="evenodd" clip-rule="evenodd" d="M641 21H621V121H641H701V101H721V41H701V21H641ZM641 41H701V101H641V41Z" fill="white"/>
<path d="M621 21V0H600V21H621ZM621 121H600V142H621V121ZM701 121V142H722V121H701ZM721 101V122H742V101H721ZM721 41H742V20H721V41ZM701 21H722V0H701V21ZM641 41V20H620V41H641ZM641 101H620V122H641V101ZM621 42H641V0H621V42ZM642 121V21H600V121H642ZM641 100H621V142H641V100ZM641 142H701V100H641V142ZM722 121V101H680V121H722ZM701 122H721V80H701V122ZM742 101V41H700V101H742ZM721 20H701V62H721V20ZM722 41V21H680V41H722ZM701 0H641V42H701V0ZM641 62H701V20H641V62ZM680 41V101H722V41H680ZM701 80H641V122H701V80ZM620 41V101H662V41H620Z" fill="black" mask="url(#path-29-outside-15)"/>
<mask id="path-31-outside-16" maskUnits="userSpaceOnUse" x="480" y="0" width="142" height="142" fill="black">
<rect fill="white" x="480" width="142" height="142"/>
<path fill-rule="evenodd" clip-rule="evenodd" d="M521 21H501V121H521V61H541V81H561V101H581V121H601V21H581V81H561V61H541V41H521V21Z"/>
</mask>
<path fill-rule="evenodd" clip-rule="evenodd" d="M521 21H501V121H521V61H541V81H561V101H581V121H601V21H581V81H561V61H541V41H521V21Z" fill="white"/>
<path d="M501 21V0H480V21H501ZM521 21H542V0H521V21ZM501 121H480V142H501V121ZM521 121V142H542V121H521ZM521 61V40H500V61H521ZM541 81H520V102H541V81ZM561 101H540V122H561V101ZM581 101H602V80H581V101ZM581 121H560V142H581V121ZM601 121V142H622V121H601ZM601 21H622V0H601V21ZM581 21V0H560V21H581ZM581 81V102H602V81H581ZM561 61H582V40H561V61ZM541 41H562V20H541V41ZM521 41H500V62H521V41ZM501 42H521V0H501V42ZM522 121V21H480V121H522ZM521 100H501V142H521V100ZM500 61V121H542V61H500ZM521 82H541V40H521V82ZM520 61V81H562V61H520ZM541 102H561V60H541V102ZM540 81V101H582V81H540ZM561 122H581V80H561V122ZM560 101V121H602V101H560ZM581 142H601V100H581V142ZM622 121V21H580V121H622ZM601 0H581V42H601V0ZM560 21V81H602V21H560ZM581 60H561V102H581V60ZM582 81V61H540V81H582ZM561 40H541V82H561V40ZM562 61V41H520V61H562ZM541 20H521V62H541V20ZM500 21V41H542V21H500Z" fill="black" mask="url(#path-31-outside-16)"/>
<mask id="path-33-outside-17" maskUnits="userSpaceOnUse" x="360" y="0" width="142" height="142" fill="black">
<rect fill="white" x="360" width="142" height="142"/>
<path fill-rule="evenodd" clip-rule="evenodd" d="M401 21H381V101H401V121H421V101H441V121H461V101H481V21H461V101H441V41H421V101H401V21Z"/>
</mask>
<path fill-rule="evenodd" clip-rule="evenodd" d="M401 21H381V101H401V121H421V101H441V121H461V101H481V21H461V101H441V41H421V101H401V21Z" fill="white"/>
<path d="M381 21V0H360V21H381ZM401 21H422V0H401V21ZM381 101H360V122H381V101ZM401 121H380V142H401V121ZM421 121V142H442V121H421ZM441 121H420V142H441V121ZM461 121V142H482V121H461ZM481 101V122H502V101H481ZM481 21H502V0H481V21ZM461 21V0H440V21H461ZM441 41H462V20H441V41ZM421 41V20H400V41H421ZM381 42H401V0H381V42ZM402 101V21H360V101H402ZM401 80H381V122H401V80ZM380 101V121H422V101H380ZM401 142H421V100H401V142ZM442 121V101H400V121H442ZM421 122H441V80H421V122ZM420 101V121H462V101H420ZM441 142H461V100H441V142ZM482 121V101H440V121H482ZM461 122H481V80H461V122ZM502 101V21H460V101H502ZM481 0H461V42H481V0ZM440 21V101H482V21H440ZM461 80H441V122H461V80ZM462 101V41H420V101H462ZM441 20H421V62H441V20ZM400 41V101H442V41H400ZM421 80H401V122H421V80ZM380 21V101H422V21H380Z" fill="black" mask="url(#path-33-outside-17)"/>
<mask id="path-35-outside-18" maskUnits="userSpaceOnUse" x="240" y="0" width="142" height="142" fill="black">
<rect fill="white" x="240" width="142" height="142"/>
<path fill-rule="evenodd" clip-rule="evenodd" d="M341 21H281V41H261V121H281V81H341V121H361V41H341V21ZM341 41H281V61H341V41Z"/>
</mask>
<path fill-rule="evenodd" clip-rule="evenodd" d="M341 21H281V41H261V121H281V81H341V121H361V41H341V21ZM341 41H281V61H341V41Z" fill="white"/>
<path d="M281 21V0H260V21H281ZM341 21H362V0H341V21ZM261 41V20H240V41H261ZM261 121H240V142H261V121ZM281 121V142H302V121H281ZM281 81V60H260V81H281ZM341 81H362V60H341V81ZM341 121H320V142H341V121ZM361 121V142H382V121H361ZM361 41H382V20H361V41ZM281 61H260V82H281V61ZM341 61V82H362V61H341ZM281 42H341V0H281V42ZM302 41V21H260V41H302ZM281 20H261V62H281V20ZM240 41V121H282V41H240ZM261 142H281V100H261V142ZM302 121V81H260V121H302ZM281 102H341V60H281V102ZM320 81V121H362V81H320ZM341 142H361V100H341V142ZM382 121V41H340V121H382ZM361 20H341V62H361V20ZM320 21V41H362V21H320ZM341 20H281V62H341V20ZM302 61V41H260V61H302ZM341 40H281V82H341V40ZM320 41V61H362V41H320Z" fill="black" mask="url(#path-35-outside-18)"/>
<mask id="path-37-outside-19" maskUnits="userSpaceOnUse" x="120" y="0" width="142" height="142" fill="black">
<rect fill="white" x="120" width="142" height="142"/>
<path fill-rule="evenodd" clip-rule="evenodd" d="M161 21H141V121H161V81H221V121H241V21H221V61H161V21Z"/>
</mask>
<path fill-rule="evenodd" clip-rule="evenodd" d="M161 21H141V121H161V81H221V121H241V21H221V61H161V21Z" fill="white"/>
<path d="M141 21V0H120V21H141ZM161 21H182V0H161V21ZM141 121H120V142H141V121ZM161 121V142H182V121H161ZM161 81V60H140V81H161ZM221 81H242V60H221V81ZM221 121H200V142H221V121ZM241 121V142H262V121H241ZM241 21H262V0H241V21ZM221 21V0H200V21H221ZM221 61V82H242V61H221ZM161 61H140V82H161V61ZM141 42H161V0H141V42ZM162 121V21H120V121H162ZM161 100H141V142H161V100ZM140 81V121H182V81H140ZM161 102H221V60H161V102ZM200 81V121H242V81H200ZM221 142H241V100H221V142ZM262 121V21H220V121H262ZM241 0H221V42H241V0ZM200 21V61H242V21H200ZM221 40H161V82H221V40ZM140 21V61H182V21H140Z" fill="black" mask="url(#path-37-outside-19)"/>
<mask id="path-39-outside-20" maskUnits="userSpaceOnUse" x="0" y="0" width="142" height="142" fill="black">
<rect fill="white" width="142" height="142"/>
<path fill-rule="evenodd" clip-rule="evenodd" d="M121 21H41V41H21V61H41V81H101V101H21V121H101V101H121V81H101V61H41V41H121V21Z"/>
</mask>
<path fill-rule="evenodd" clip-rule="evenodd" d="M121 21H41V41H21V61H41V81H101V101H21V121H101V101H121V81H101V61H41V41H121V21Z" fill="white"/>
<path d="M41 21V0H20V21H41ZM121 21H142V0H121V21ZM21 41V20H0V41H21ZM21 61H0V82H21V61ZM41 81H20V102H41V81ZM21 101V80H0V101H21ZM21 121H0V142H21V121ZM101 121V142H122V121H101ZM121 101V122H142V101H121ZM121 81H142V60H121V81ZM101 61H122V40H101V61ZM121 41V62H142V41H121ZM41 42H121V0H41V42ZM62 41V21H20V41H62ZM41 20H21V62H41V20ZM0 41V61H42V41H0ZM21 82H41V40H21V82ZM20 61V81H62V61H20ZM41 102H101V60H41V102ZM80 81V101H122V81H80ZM101 80H21V122H101V80ZM0 101V121H42V101H0ZM21 142H101V100H21V142ZM122 121V101H80V121H122ZM101 122H121V80H101V122ZM142 101V81H100V101H142ZM121 60H101V102H121V60ZM122 81V61H80V81H122ZM101 40H41V82H101V40ZM62 61V41H20V61H62ZM121 20H41V62H121V20ZM100 21V41H142V21H100Z" fill="black" mask="url(#path-39-outside-20)"/>
<path fill-rule="evenodd" clip-rule="evenodd" d="M1121 41H1101V61H1121V81H1141V61H1121V41ZM1161 61V81H1181V61H1201V41H1181V61H1161ZM1161 121H1141V141H1161V121Z" fill="#999999"/>
<path fill-rule="evenodd" clip-rule="evenodd" d="M1001 121H981V141H1001H1061V121H1081V101H1061V121H1001ZM1001 61H1061V41H1001V61Z" fill="#999999"/>
<path fill-rule="evenodd" clip-rule="evenodd" d="M881 121H861V141H881H941V121H961V101H941V121H881ZM881 61H941V41H881V61Z" fill="#999999"/>
<path fill-rule="evenodd" clip-rule="evenodd" d="M761 121H741V141H761V121ZM761 101H821V81H761V101ZM821 121V141H841V121H821ZM821 61V41H761V61H821Z" fill="#999999"/>
<path fill-rule="evenodd" clip-rule="evenodd" d="M641 121H621V141H641H701V121H721V101H701V121H641ZM641 61H701V41H641V61Z" fill="#999999"/>
<path fill-rule="evenodd" clip-rule="evenodd" d="M501 121V141H521V121H501ZM521 81H541V101H561V121H581V141H601V121H581V101H561V81H541V61H521V81Z" fill="#999999"/>
<path fill-rule="evenodd" clip-rule="evenodd" d="M381 101V121H401V141H421V121H441V141H461V121H481V101H461V121H441V101H421V121H401V101H381Z" fill="#999999"/>
<path fill-rule="evenodd" clip-rule="evenodd" d="M281 121H261V141H281V121ZM281 101H341V81H281V101ZM341 121V141H361V121H341ZM341 61V41H281V61H341Z" fill="#999999"/>
<path fill-rule="evenodd" clip-rule="evenodd" d="M141 121V141H161V121H141ZM161 101H221V81H161V101ZM221 121V141H241V121H221Z" fill="#999999"/>
<path fill-rule="evenodd" clip-rule="evenodd" d="M121 41H41V61H21V81H41V101H101V121H21V141H101V121H121V101H101V81H41V61H101H121V41Z" fill="#999999"/>
</svg>
