<svg width="1220" height="160" viewBox="0 0 1220 160" fill="none" xmlns="http://www.w3.org/2000/svg">
<path d="M180 0H20V20H0V160H180V120H200V160H300V120H320V160H540V140H560V160H780V120H800V160H1080V140H1100V100H1120V160H1180V100H1200V80H1220V0H1160V20H1140V0H740V20H720V0H560V20H540V0H440V20H420V0H200V40H180V0Z" fill="black"/>
<path fill-rule="evenodd" clip-rule="evenodd" d="M1120 40H1100V60H1120V80H1140V140H1160V80H1180V60H1200V40H1180V60H1160V80H1140V60H1120V40Z" fill="#999999"/>
<path fill-rule="evenodd" clip-rule="evenodd" d="M1000 40H980V140H1000H1060V120H1080V60H1060V40H1000ZM1000 60H1060V120H1000V60Z" fill="#999999"/>
<path fill-rule="evenodd" clip-rule="evenodd" d="M880 40H860V140H880H940V120H960V60H940V40H880ZM880 60H940V120H880V60Z" fill="#999999"/>
<path fill-rule="evenodd" clip-rule="evenodd" d="M820 40H760V60H740V140H760V100H820V140H840V60H820V40ZM820 60H760V80H820V60Z" fill="#999999"/>
<path fill-rule="evenodd" clip-rule="evenodd" d="M640 40H620V140H640H700V120H720V60H700V40H640ZM640 60H700V120H640V60Z" fill="#999999"/>
<path fill-rule="evenodd" clip-rule="evenodd" d="M520 40H500V140H520V80H540V100H560V120H580V140H600V40H580V100H560V80H540V60H520V40Z" fill="#999999"/>
<path fill-rule="evenodd" clip-rule="evenodd" d="M400 40H380V120H400V140H420V120H440V140H460V120H480V40H460V120H440V60H420V120H400V40Z" fill="#999999"/>
<path fill-rule="evenodd" clip-rule="evenodd" d="M340 40H280V60H260V140H280V100H340V140H360V60H340V40ZM340 60H280V80H340V60Z" fill="#999999"/>
<path fill-rule="evenodd" clip-rule="evenodd" d="M160 40H140V140H160V100H220V140H240V40H220V80H160V40Z" fill="#999999"/>
<path fill-rule="evenodd" clip-rule="evenodd" d="M120 40H40V60H20V80H40V100H100V120H20V140H100V120H120V100H100V80H40V60H120V40Z" fill="#999999"/>
<path fill-rule="evenodd" clip-rule="evenodd" d="M1120 20H1100V40H1120V60H1140V120H1160V60H1180V40H1200V20H1180V40H1160V60H1140V40H1120V20Z" fill="white"/>
<path fill-rule="evenodd" clip-rule="evenodd" d="M1000 20H980V120H1000H1060V100H1080V40H1060V20H1000ZM1000 40H1060V100H1000V40Z" fill="white"/>
<path fill-rule="evenodd" clip-rule="evenodd" d="M880 20H860V120H880H940V100H960V40H940V20H880ZM880 40H940V100H880V40Z" fill="white"/>
<path fill-rule="evenodd" clip-rule="evenodd" d="M820 20H760V40H740V120H760V80H820V120H840V40H820V20ZM820 40H760V60H820V40Z" fill="white"/>
<path fill-rule="evenodd" clip-rule="evenodd" d="M640 20H620V120H640H700V100H720V40H700V20H640ZM640 40H700V100H640V40Z" fill="white"/>
<path fill-rule="evenodd" clip-rule="evenodd" d="M520 20H500V120H520V60H540V80H560V100H580V120H600V20H580V80H560V60H540V40H520V20Z" fill="white"/>
<path fill-rule="evenodd" clip-rule="evenodd" d="M400 20H380V100H400V120H420V100H440V120H460V100H480V20H460V100H440V40H420V100H400V20Z" fill="white"/>
<path fill-rule="evenodd" clip-rule="evenodd" d="M340 20H280V40H260V120H280V80H340V120H360V40H340V20ZM340 40H280V60H340V40Z" fill="white"/>
<path fill-rule="evenodd" clip-rule="evenodd" d="M160 20H140V120H160V80H220V120H240V20H220V60H160V20Z" fill="white"/>
<path fill-rule="evenodd" clip-rule="evenodd" d="M120 20H40V40H20V60H40V80H100V100H20V120H100V100H120V80H100V60H40V40H120V20Z" fill="white"/>
</svg>
